<svg width="44" height="48" viewBox="0 0 44 48" fill="none" xmlns="http://www.w3.org/2000/svg">
<path d="M43.0641 0.111115L39.2261 43.1061L21.9743 47.8889L4.76994 43.1129L0.936035 0.111115H43.0641Z" fill="#264DE4"/>
<path d="M35.9403 40.3683L39.2201 3.62714H22V44.2331L35.9403 40.3683Z" fill="#2965F1"/>
<path d="M9.7251 19.5759L10.1978 24.8498H22V19.5759H9.7251Z" fill="#EBEBEB"/>
<path d="M22 8.90113H21.9818H8.77539L9.25482 14.1752H22V8.90113Z" fill="#EBEBEB"/>
<path d="M22.0001 38.76V33.2729L21.977 33.279L16.1033 31.693L15.7278 27.4868H12.8737H10.4336L11.1725 35.7677L21.9758 38.7668L22.0001 38.76Z" fill="#EBEBEB"/>
<path d="M28.4763 24.8497L27.8641 31.6897L21.9819 33.2773V38.7643L32.7939 35.7677L32.8732 34.8767L34.1126 20.992L34.2412 19.5758L35.1934 8.90113H21.9819V14.1752H29.4135L28.9336 19.5758H21.9819V24.8497H28.4763Z" fill="white"/>
</svg>
