<svg width="48" height="48" viewBox="0 0 48 48" fill="none" xmlns="http://www.w3.org/2000/svg">
<path d="M47.8889 0.111115H0.111084V47.8889H47.8889V0.111115Z" fill="#F7DF1E"/>
<path d="M32.2055 37.4377C33.1679 39.0091 34.4199 40.1641 36.6344 40.1641C38.4947 40.1641 39.6831 39.2343 39.6831 37.9496C39.6831 36.4101 38.4621 35.8648 36.4145 34.9692L35.2921 34.4876C32.0523 33.1074 29.9 31.3783 29.9 27.7229C29.9 24.3557 32.4656 21.7924 36.4751 21.7924C39.3297 21.7924 41.3819 22.7859 42.8607 25.3871L39.3646 27.6319C38.5948 26.2516 37.7644 25.7079 36.4751 25.7079C35.1601 25.7079 34.3267 26.5421 34.3267 27.6319C34.3267 28.9788 35.1609 29.524 37.0872 30.3583L38.2096 30.8391C42.0242 32.4749 44.178 34.1426 44.178 37.892C44.178 41.9341 41.0027 44.1486 36.7383 44.1486C32.5687 44.1486 29.875 42.1617 28.5569 39.5574L32.2055 37.4377ZM16.3455 37.8268C17.0508 39.0781 17.6924 40.136 19.235 40.136C20.71 40.136 21.6405 39.5589 21.6405 37.3149V22.0487H26.1301V37.3755C26.1301 42.0244 23.4045 44.1403 19.4261 44.1403C15.8314 44.1403 13.7496 42.28 12.6909 40.0393L16.3455 37.8268Z" fill="black"/>
</svg>
