<svg width="49" height="52" viewBox="0 0 49 52" fill="none" xmlns="http://www.w3.org/2000/svg">
<path d="M24.4999 30.2122C26.8533 30.2122 28.7611 28.3264 28.7611 26C28.7611 23.6737 26.8533 21.7878 24.4999 21.7878C22.1466 21.7878 20.2388 23.6737 20.2388 26C20.2388 28.3264 22.1466 30.2122 24.4999 30.2122Z" fill="#61DAFB"/>
<path fill-rule="evenodd" clip-rule="evenodd" d="M4.46391 23.7837C3.49759 24.6459 3.17997 25.3978 3.17997 26C3.17997 26.6022 3.49759 27.3541 4.46391 28.2163C5.42958 29.0781 6.91412 29.9244 8.8804 30.6665C12.8021 32.1467 18.324 33.0942 24.4999 33.0942C30.6758 33.0942 36.1977 32.1467 40.1194 30.6665C42.0857 29.9244 43.5702 29.0781 44.5359 28.2163C45.5022 27.3541 45.8198 26.6022 45.8198 26C45.8198 25.3978 45.5022 24.6459 44.5359 23.7837C43.5702 22.9219 42.0857 22.0756 40.1194 21.3335C36.1977 19.8533 30.6758 18.9058 24.4999 18.9058C18.324 18.9058 12.8021 19.8533 8.8804 21.3335C6.91412 22.0756 5.42958 22.9219 4.46391 23.7837ZM7.78358 18.4621C12.1373 16.8188 18.0479 15.8344 24.4999 15.8344C30.9519 15.8344 36.8624 16.8188 41.2162 18.4621C43.3876 19.2816 45.2516 20.2949 46.6 21.4981C47.9477 22.7007 48.9097 24.2192 48.9097 26C48.9097 27.7808 47.9477 29.2993 46.6 30.5019C45.2516 31.7051 43.3876 32.7184 41.2162 33.5379C36.8624 35.1812 30.9519 36.1656 24.4999 36.1656C18.0479 36.1656 12.1373 35.1812 7.78358 33.5379C5.61214 32.7184 3.74819 31.7051 2.39981 30.5019C1.05208 29.2993 0.0900879 27.7808 0.0900879 26C0.0900879 24.2192 1.05208 22.7007 2.39981 21.4981C3.74819 20.2949 5.61214 19.2816 7.78358 18.4621Z" fill="#61DAFB"/>
<path fill-rule="evenodd" clip-rule="evenodd" d="M16.4361 7.74288C15.199 7.34729 14.3773 7.44929 13.8431 7.75415C13.309 8.05902 12.8087 8.71146 12.5368 9.96825C12.2648 11.2251 12.2656 12.918 12.5984 14.971C13.2621 19.0661 15.1921 24.2649 18.2791 29.5503C21.3661 34.8357 24.9557 39.0873 28.2115 41.703C29.8438 43.0144 31.3265 43.8615 32.5637 44.2571C33.8007 44.6527 34.6224 44.5507 35.1566 44.2458C35.6908 43.941 36.191 43.2885 36.4629 42.0317C36.7349 40.7749 36.7341 39.082 36.4014 37.029C35.7376 32.9339 33.8077 27.7351 30.7206 22.4497C27.6336 17.1643 24.044 12.9127 20.7882 10.297C19.1559 8.98562 17.6732 8.1385 16.4361 7.74288ZM22.7359 7.91901C26.3543 10.826 30.1733 15.3954 33.4003 20.9204C36.6272 26.4454 38.7209 31.9995 39.4586 36.5505C39.8265 38.8206 39.8708 40.924 39.4907 42.6806C39.1106 44.4372 38.2616 46.0154 36.708 46.9021C35.1544 47.7887 33.3473 47.7264 31.6182 47.1735C29.8893 46.6206 28.0686 45.5309 26.2638 44.081C22.6455 41.174 18.8264 36.6046 15.5995 31.0796C12.3725 25.5546 10.2788 20.0005 9.54117 15.4495C9.17325 13.1794 9.12898 11.076 9.50906 9.31941C9.88917 7.56275 10.7381 5.98461 12.2917 5.09794C13.8454 4.21126 15.6524 4.27357 17.3815 4.82651C19.1104 5.37942 20.9311 6.46905 22.7359 7.91901Z" fill="#61DAFB"/>
<path fill-rule="evenodd" clip-rule="evenodd" d="M36.4629 9.96825C36.191 8.71146 35.6908 8.05901 35.1566 7.75415C34.6224 7.44929 33.8007 7.34728 32.5637 7.74288C31.3265 8.1385 29.8438 8.98561 28.2115 10.297C24.9557 12.9127 21.3661 17.1643 18.2791 22.4497C15.1921 27.7351 13.2621 32.9339 12.5984 37.0289C12.2656 39.082 12.2648 40.7749 12.5368 42.0317C12.8087 43.2885 13.309 43.941 13.8431 44.2458C14.3773 44.5507 15.199 44.6527 16.4361 44.2571C17.6732 43.8615 19.1559 43.0144 20.7882 41.703C24.044 39.0873 27.6336 34.8357 30.7206 29.5503C33.8076 24.2649 35.7376 19.0661 36.4014 14.971C36.7341 12.918 36.7349 11.2251 36.4629 9.96825ZM39.4586 15.4494C38.7209 20.0005 36.6272 25.5546 33.4003 31.0796C30.1733 36.6046 26.3542 41.174 22.7359 44.081C20.9311 45.5309 19.1104 46.6206 17.3815 47.1735C15.6524 47.7264 13.8454 47.7887 12.2917 46.902C10.7381 46.0154 9.88916 44.4372 9.50906 42.6806C9.12897 40.924 9.17325 38.8205 9.54116 36.5505C10.2788 31.9995 12.3725 26.4454 15.5995 20.9204C18.8264 15.3954 22.6455 10.826 26.2638 7.91901C28.0686 6.46904 29.8893 5.37941 31.6182 4.82651C33.3473 4.27357 35.1544 4.21126 36.708 5.09793C38.2616 5.98461 39.1106 7.56274 39.4907 9.31941C39.8707 11.076 39.8265 13.1794 39.4586 15.4494Z" fill="#61DAFB"/>
</svg>
