<svg width="48" height="30" viewBox="0 0 48 30" fill="none" xmlns="http://www.w3.org/2000/svg">
<path d="M24 0.670563C17.6294 0.670563 13.648 3.85495 12.0552 10.2231C14.4444 7.03873 17.2315 5.84504 20.4165 6.64083C22.2339 7.09489 23.5328 8.41345 24.9708 9.87241C27.3128 12.2491 30.0234 14.9997 35.9447 14.9997C42.3147 14.9997 46.2967 11.8153 47.8889 5.44654C45.5003 8.63092 42.7132 9.82522 39.5276 9.02942C37.7108 8.57536 36.4119 7.2568 34.9739 5.79784C32.6319 3.4212 29.9207 0.670563 24 0.670563V0.670563ZM12.0552 14.9997C5.68526 14.9997 1.70328 18.1841 0.111084 24.5528C2.49967 21.3685 5.28676 20.1742 8.47235 20.9706C10.2892 21.4252 11.588 22.7432 13.0261 24.2015C15.3681 26.5782 18.0793 29.3294 24 29.3294C30.3705 29.3294 34.3519 26.145 35.9447 19.7763C33.5555 22.9606 30.7684 24.1549 27.5835 23.3585C25.766 22.9051 24.4672 21.5859 23.0291 20.1276C20.6871 17.7509 17.9765 14.9997 12.0552 14.9997V14.9997Z" fill="#06B6D4"/>
</svg>
