<svg width="48" height="48" viewBox="0 0 48 48" fill="none" xmlns="http://www.w3.org/2000/svg">
<path d="M3.50709 23.9994C3.50709 32.1115 8.22118 39.1212 15.057 42.4436L5.28136 15.6592C4.10948 18.2834 3.50487 21.1254 3.50709 23.9994V23.9994ZM37.8351 22.9653C37.8351 20.4325 36.9254 18.6785 36.1451 17.3133C35.1062 15.6252 34.1329 14.1957 34.1329 12.5076C34.1329 10.6237 35.5613 8.87015 37.5738 8.87015C37.6647 8.87015 37.7509 8.88145 37.8398 8.88652C34.1934 5.54622 29.3358 3.50678 24.0005 3.50678C16.841 3.50678 10.5422 7.18011 6.87781 12.7439C7.35862 12.7583 7.81213 12.7681 8.19662 12.7681C10.3402 12.7681 13.6582 12.508 13.6582 12.508C14.763 12.4429 14.8932 14.0654 13.79 14.1961C13.79 14.1961 12.6795 14.3267 11.4441 14.3914L18.907 36.5893L23.3922 23.1388L20.1989 14.391C19.0953 14.3263 18.0499 14.1957 18.0499 14.1957C16.9455 14.131 17.075 12.4425 18.1793 12.5076C18.1793 12.5076 21.5637 12.7677 23.5774 12.7677C25.7205 12.7677 29.039 12.5076 29.039 12.5076C30.1445 12.4425 30.2744 14.0651 29.1704 14.1957C29.1704 14.1957 28.0579 14.3263 26.8249 14.391L34.2308 36.4208L36.2745 29.5901C37.1609 26.7556 37.8351 24.7196 37.8351 22.9653V22.9653Z" fill="#00749A"/>
<path d="M24.3599 25.792L18.2112 43.6587C20.091 44.2127 22.0406 44.494 24.0004 44.494C26.3869 44.494 28.6755 44.081 30.8058 43.3323C30.7486 43.2428 30.6998 43.1483 30.6599 43.05L24.3599 25.792ZM41.9825 14.1672C42.0707 14.82 42.1206 15.5211 42.1206 16.2745C42.1206 18.3541 41.7322 20.6919 40.5623 23.6149L34.3025 41.7136C40.395 38.1608 44.493 31.5601 44.493 23.9994C44.4985 20.5628 43.6349 17.1806 41.9825 14.1672V14.1672Z" fill="#00749A"/>
<path d="M24.0004 0.111107C10.8283 0.111107 0.111328 10.8273 0.111328 23.9994C0.111328 37.1731 10.8279 47.8893 24.0004 47.8893C37.1722 47.8893 47.8907 37.1734 47.8907 23.9994C47.8903 10.8273 37.1722 0.111107 24.0004 0.111107ZM24.0004 46.7939C11.4324 46.7939 1.2067 36.5682 1.2067 23.9994C1.2067 11.4317 11.432 1.20686 24.0004 1.20686C36.5681 1.20686 46.793 11.4317 46.793 23.9994C46.793 36.5682 36.5678 46.7939 24.0004 46.7939Z" fill="#00749A"/>
</svg>
